<svg width="512" height="512" viewBox="0 0 512 512" fill="none" xmlns="http://www.w3.org/2000/svg">
<rect width="512" height="512" rx="256" fill="black"/>
<path d="M169.204 185.519C187.787 160.011 206.191 133.807 217.676 108.161C222.544 97.2874 237.552 92.178 247.988 99.2738C311.198 142.247 406 225.317 406 302.658C406 322.297 402.265 338.895 396.059 352.856M133.48 235.72C117.5 260.049 106 282.797 106 302.658C106 354.649 148.105 391.495 182.527 409.278C190.413 413.352 198.09 404.853 193.952 397.608C184.84 381.652 176 361.048 176 344.493C176 321.544 195.592 303.102 209.586 291.276C213.176 288.244 218.8 288.291 221.912 291.718C227.689 298.082 233.466 306.137 239.243 312.657C242.635 316.484 248.952 316.146 251.927 312.053C270.417 286.624 274.705 254.179 275.701 229.929C276.001 222.609 285.599 219.013 291.102 224.447C315.173 248.215 346 286.751 346 319.392C346 349.779 326.918 382.08 310.411 403.253C305.571 409.458 310.889 417.875 318.977 415.628C328.626 412.949 338.997 408.93 349.099 403.253" stroke="#F55C03" stroke-width="9.5625" stroke-linecap="round"/>
</svg>
