<svg width="512" height="512" viewBox="0 0 512 512" fill="none" xmlns="http://www.w3.org/2000/svg">
<rect width="512" height="512" rx="256" fill="#3C4756"/>
<rect x="31" y="31" width="450" height="450" stroke="black"/>
<path d="M169.204 180.997C187.787 152.415 206.191 123.053 217.676 94.3176C222.544 82.1339 237.552 76.4089 247.988 84.3597C311.198 132.511 406 225.589 406 312.25C406 334.255 402.265 352.853 396.059 368.496M133.48 237.246C117.5 264.507 106 289.996 106 312.25C106 370.504 148.105 411.79 182.527 431.716C190.413 436.281 198.09 426.758 193.952 418.639C184.84 400.761 176 377.674 176 359.125C176 333.411 195.592 312.747 209.586 299.496C213.176 296.099 218.8 296.151 221.913 299.991C227.689 307.122 233.466 316.148 239.243 323.453C242.635 327.741 248.952 327.363 251.927 322.776C270.417 294.284 274.705 257.929 275.701 230.757C276.001 222.556 285.599 218.526 291.102 224.614C315.173 251.247 346 294.426 346 331C346 365.048 326.918 401.241 310.411 424.966C305.571 431.918 310.889 441.349 318.978 438.831C328.626 435.829 338.997 431.326 349.099 424.966" stroke="#F55C03" stroke-width="50" stroke-linecap="round"/>
</svg>
