<svg width="850" height="180" viewBox="0 0 850 180" fill="none" xmlns="http://www.w3.org/2000/svg">
<g clip-path="url(#clip0_1_3)">
<path d="M76.8 158.6C67.0667 158.6 58 156.7 49.6 152.9C41.2667 149.1 34 143.867 27.8 137.2C21.6 130.467 16.7333 122.733 13.2 114C9.73333 105.2 8 95.8 8 85.8C8 75.2667 9.86667 65.6 13.6 56.8C17.4 48 22.5667 40.3667 29.1 33.9C35.6333 27.4333 43.0333 22.4333 51.3 18.9C59.6333 15.3667 68.3 13.6 77.3 13.6C87.3667 13.6 97.1333 15.9667 106.6 20.7C116.133 25.3667 124.533 32.6 131.8 42.4L110 54.1C105.533 48.6333 100.4 44.5667 94.6 41.9C88.8667 39.1667 83 37.8 77 37.8C71.1333 37.8 65.5 39 60.1 41.4C54.7667 43.8 50 47.2 45.8 51.6C41.6667 55.9333 38.4 61.0667 36 67C33.6 72.8667 32.4 79.3 32.4 86.3C32.4 92.9 33.5667 99.1333 35.9 105C38.2333 110.8 41.4333 115.9 45.5 120.3C49.6333 124.633 54.4 128.033 59.8 130.5C65.2 132.967 71 134.2 77.2 134.2C81.3333 134.2 85.3667 133.567 89.3 132.3C93.3 130.967 97.0333 129.067 100.5 126.6C104.033 124.133 107.167 121.133 109.9 117.6C112.7 114.067 115.033 110.067 116.9 105.6H91.4V84.3H145.6C145.867 94.5 144.267 104.067 140.8 113C137.333 121.933 132.433 129.833 126.1 136.7C119.767 143.567 112.4 148.933 104 152.8C95.6 156.667 86.5333 158.6 76.8 158.6ZM237.986 56H262.386V156H237.986L236.886 143.6C234.153 148.067 230.519 151.7 225.986 154.5C221.519 157.233 216.219 158.6 210.086 158.6C202.686 158.6 195.753 157.2 189.286 154.4C182.819 151.6 177.119 147.733 172.186 142.8C167.319 137.867 163.486 132.167 160.686 125.7C157.953 119.233 156.586 112.3 156.586 104.9C156.586 97.7667 157.886 91.0667 160.486 84.8C163.153 78.5333 166.853 73.0333 171.586 68.3C176.319 63.5667 181.786 59.8667 187.986 57.2C194.186 54.5333 200.853 53.2 207.986 53.2C214.586 53.2 220.486 54.6667 225.686 57.6C230.953 60.5333 235.419 64.2667 239.086 68.8L237.986 56ZM209.486 135.1C214.686 135.1 219.286 133.8 223.286 131.2C227.286 128.6 230.419 125.1 232.686 120.7C234.953 116.233 236.086 111.333 236.086 106C236.086 100.6 234.953 95.7 232.686 91.3C230.419 86.8333 227.253 83.3 223.186 80.7C219.186 78.1 214.619 76.8 209.486 76.8C204.353 76.8 199.653 78.1333 195.386 80.8C191.186 83.4 187.819 86.9 185.286 91.3C182.819 95.7 181.586 100.6 181.586 106C181.586 111.4 182.853 116.3 185.386 120.7C187.919 125.1 191.286 128.6 195.486 131.2C199.753 133.8 204.419 135.1 209.486 135.1ZM311.813 157.8C306.613 157.467 301.579 156.433 296.712 154.7C291.913 152.9 287.646 150.467 283.913 147.4C280.179 144.333 277.313 140.667 275.313 136.4L295.913 127.6C296.713 128.933 298.013 130.367 299.813 131.9C301.613 133.367 303.746 134.6 306.213 135.6C308.746 136.6 311.513 137.1 314.513 137.1C317.046 137.1 319.446 136.767 321.712 136.1C324.046 135.367 325.913 134.267 327.313 132.8C328.779 131.333 329.513 129.433 329.513 127.1C329.513 124.633 328.646 122.733 326.913 121.4C325.246 120 323.113 118.967 320.513 118.3C317.979 117.567 315.513 116.9 313.113 116.3C306.779 115.033 300.879 113.067 295.413 110.4C290.013 107.733 285.646 104.3 282.313 100.1C279.046 95.8333 277.413 90.7 277.413 84.7C277.413 78.1 279.146 72.4 282.613 67.6C286.146 62.8 290.713 59.1 296.313 56.5C301.979 53.9 308.079 52.6 314.613 52.6C322.546 52.6 329.813 54.2667 336.413 57.6C343.079 60.8667 348.346 65.5 352.213 71.5L332.913 82.9C331.979 81.3 330.679 79.8333 329.013 78.5C327.346 77.1 325.446 75.9667 323.313 75.1C321.179 74.1667 318.946 73.6333 316.613 73.5C313.613 73.3667 310.879 73.6333 308.413 74.3C305.946 74.9667 303.946 76.1 302.413 77.7C300.946 79.3 300.213 81.4333 300.213 84.1C300.213 86.6333 301.213 88.5333 303.213 89.8C305.213 91 307.613 91.9333 310.413 92.6C313.279 93.2667 316.013 94 318.613 94.8C324.479 96.7333 329.979 99.1 335.113 101.9C340.313 104.7 344.479 108.133 347.613 112.2C350.746 116.267 352.246 121.133 352.113 126.8C352.113 133.267 350.179 138.933 346.313 143.8C342.446 148.6 337.446 152.267 331.313 154.8C325.246 157.333 318.746 158.333 311.813 157.8ZM513.367 56H537.767V156H513.367V56ZM525.767 43.1C522.167 43.1 519.134 41.9333 516.667 39.6C514.201 37.2 512.967 34.2 512.967 30.6C512.967 27.0667 514.201 24.1 516.667 21.7C519.134 19.3 522.134 18.1 525.667 18.1C529.201 18.1 532.167 19.3 534.567 21.7C537.034 24.1 538.267 27.0667 538.267 30.6C538.267 34.2 537.067 37.2 534.667 39.6C532.267 41.9333 529.301 43.1 525.767 43.1ZM615.405 80.4H596.005V156H571.605V80.4H556.805V56H571.605V24.6H596.005V56H615.405V80.4ZM633.584 156L633.484 56H657.884L657.984 64.9C661.384 61.3 665.451 58.4667 670.184 56.4C674.918 54.2667 680.018 53.2 685.484 53.2C689.151 53.2 692.818 53.7333 696.484 54.8L686.884 79.4C684.351 78.4 681.818 77.9 679.284 77.9C675.351 77.9 671.751 78.8667 668.484 80.8C665.284 82.6667 662.718 85.2333 660.784 88.5C658.918 91.7 657.984 95.2667 657.984 99.2V156H633.584ZM778.416 56H802.816V156H778.416L777.316 143.6C774.582 148.067 770.949 151.7 766.416 154.5C761.949 157.233 756.649 158.6 750.516 158.6C743.116 158.6 736.182 157.2 729.716 154.4C723.249 151.6 717.549 147.733 712.616 142.8C707.749 137.867 703.916 132.167 701.116 125.7C698.382 119.233 697.016 112.3 697.016 104.9C697.016 97.7667 698.316 91.0667 700.916 84.8C703.582 78.5333 707.282 73.0333 712.016 68.3C716.749 63.5667 722.216 59.8667 728.416 57.2C734.616 54.5333 741.282 53.2 748.416 53.2C755.016 53.2 760.916 54.6667 766.116 57.6C771.382 60.5333 775.849 64.2667 779.516 68.8L778.416 56ZM749.916 135.1C755.116 135.1 759.716 133.8 763.716 131.2C767.716 128.6 770.849 125.1 773.116 120.7C775.382 116.233 776.516 111.333 776.516 106C776.516 100.6 775.382 95.7 773.116 91.3C770.849 86.8333 767.682 83.3 763.616 80.7C759.616 78.1 755.049 76.8 749.916 76.8C744.782 76.8 740.082 78.1333 735.816 80.8C731.616 83.4 728.249 86.9 725.716 91.3C723.249 95.7 722.016 100.6 722.016 106C722.016 111.4 723.282 116.3 725.816 120.7C728.349 125.1 731.716 128.6 735.916 131.2C740.182 133.8 744.849 135.1 749.916 135.1Z" fill="#3C4756"/>
<path d="M409.489 59.1038C415.808 49.3859 422.065 39.4031 425.97 29.6329C427.625 25.4904 432.728 23.544 436.276 26.2472C457.767 42.6186 490 74.2653 490 103.73C490 111.212 488.73 117.535 486.62 122.854M397.343 78.2287C391.91 87.4973 388 96.1634 388 103.73C388 123.536 402.316 137.574 414.019 144.348C416.701 145.901 419.311 142.663 417.904 139.902C414.806 133.824 411.8 125.974 411.8 119.667C411.8 110.925 418.461 103.899 423.219 99.3937C424.44 98.2385 426.352 98.2564 427.41 99.562C429.374 101.986 431.339 105.055 433.303 107.539C434.456 108.997 436.604 108.868 437.615 107.309C443.902 97.6214 445.36 85.2609 445.698 76.0223C445.8 73.2338 449.064 71.8639 450.935 73.9338C459.119 82.9889 469.6 97.6699 469.6 110.105C469.6 121.681 463.112 133.987 457.5 142.053C455.854 144.417 457.662 147.624 460.412 146.768C463.693 145.747 467.219 144.216 470.654 142.053" stroke="#F55C03" stroke-width="9.5625" stroke-linecap="round"/>
</g>
<defs>
<clipPath id="clip0_1_3">
<rect width="850" height="180" fill="white"/>
</clipPath>
</defs>
</svg>
